<?xml version="1.0"?>
<svg xmlns="http://www.w3.org/2000/svg" height="512px" viewBox="-66 -17 570 570.66693" width="512px"><path d="m216.558594 535c-108.730469 0-218.8125-22.710938-218.8125-66.132812 0-1.625-.390625-38.144532-.621094-54.457032-.0625-4.703125 3.699219-8.574218 8.402344-8.640625 4.640625-.132812 8.574218 3.695313 8.644531 8.40625.226563 16.378907.625 53.0625.625 54.6875 0 20.5 76.753906 49.089844 201.761719 49.089844 125.007812 0 201.765625-28.589844 201.765625-49.089844v-47.972656c0-4.710937 3.820312-8.523437 8.523437-8.523437 4.707032 0 8.519532 3.8125 8.519532 8.523437v47.972656c0 43.425781-110.074219 66.136719-218.808594 66.136719zm0 0" fill="#87607D"/><path d="m218.992188 477.386719c-69.050782 0-132.414063-8.71875-173.835938-23.925781-4.417969-1.621094-6.683594-6.519532-5.066406-10.9375 1.628906-4.417969 6.53125-6.691407 10.945312-5.058594 39.027344 14.324218 101.820313 22.878906 167.957032 22.878906 69.621093 0 134.269531-9.261719 172.925781-24.785156 4.375-1.75 9.332031.367187 11.089843 4.726562 1.75 4.371094-.367187 9.339844-4.742187 11.085938-40.566406 16.296875-107.585937 26.015625-179.273437 26.015625zm0 0" fill="#87607D"/><path d="m353.976562 464.253906c-3.679687 0-7.042968-2.382812-8.152343-6.042968-1.292969-4.265626.917969-8.8125 5.074219-10.425782 17.878906-6.933594 24.21875-13.816406 24.21875-17.613281 0-12.605469-53.617188-36.136719-156.121094-36.136719s-156.132813 23.53125-156.132813 36.136719c0 3.792969 6.34375 10.679687 24.222657 17.613281 4.160156 1.613282 6.371093 6.160156 5.078124 10.425782-1.296874 4.273437-5.65625 6.84375-10.015624 5.839843-38.347657-8.574219-84.050782-24.695312-84.050782-52.796875 0-43.410156 111.128906-66.121094 220.898438-66.121094 106.359375 0 216.378906 26.03125 216.378906 69.59375 0 27.792969-40.203125 40.527344-79.53125 49.324219-.628906.136719-1.253906.203125-1.867188.203125zm-134.984374-87.261718c86.050781 0 173.167968 18.265624 173.167968 53.183593 0 2.0625-.285156 4.078125-.863281 6.042969 21.527344-8.222656 27.027344-15.847656 27.027344-21.492188 0-21.421874-77.652344-52.550781-199.332031-52.550781-126.296876 0-203.851563 28.59375-203.851563 49.078125 0 6.828125 9.9375 15.921875 31.40625 24.472656-.488281-1.808593-.730469-3.664062-.730469-5.550781.003906-34.917969 87.121094-53.183593 173.175782-53.183593zm0 0" fill="#87607D"/><path d="m211.070312 362.175781c-109.835937 0-199.191406-81.242187-199.191406-181.085937 0-99.847656 89.355469-181.089844 199.191406-181.089844 109.839844 0 199.203126 81.242188 199.203126 181.089844 0 99.84375-89.363282 181.085937-199.203126 181.085937zm0-345.132812c-100.433593 0-182.148437 73.589843-182.148437 164.042969 0 90.453124 81.714844 164.042968 182.148437 164.042968 100.441407 0 182.15625-73.589844 182.15625-164.042968 0-90.453126-81.714843-164.042969-182.15625-164.042969zm0 0" fill="#87607D"/><path d="m211.070312 328.867188c-89.542968 0-162.390624-66.289063-162.390624-147.777344 0-81.488282 72.847656-147.78125 162.390624-147.78125 89.550782 0 162.398438 66.292968 162.398438 147.78125 0 81.488281-72.847656 147.777344-162.398438 147.777344zm0-278.515626c-80.140624 0-145.347656 58.652344-145.347656 130.734376 0 72.085937 65.207032 130.734374 145.347656 130.734374 80.148438 0 145.355469-58.648437 145.355469-130.734374 0-72.082032-65.207031-130.734376-145.355469-130.734376zm0 0" fill="#87607D"/><path d="m231.890625 240.078125c-2.179687 0-4.367187-.832031-6.027344-2.496094-3.328125-3.328125-3.328125-8.726562 0-12.050781l61.046875-61.046875c3.324219-3.328125 8.71875-3.328125 12.046875 0s3.328125 8.71875 0 12.050781l-61.042969 61.046875c-1.664062 1.664063-3.84375 2.496094-6.023437 2.496094zm0 0" fill="#87607D"/><path d="m144.1875 245.238281c-2.179688 0-4.359375-.828125-6.027344-2.496093-3.324218-3.328126-3.324218-8.71875 0-12.050782l134.992188-134.988281c3.328125-3.324219 8.722656-3.324219 12.054687 0 3.324219 3.328125 3.324219 8.726563 0 12.050781l-134.996093 134.988282c-1.664063 1.667968-3.84375 2.496093-6.023438 2.496093zm0 0" fill="#87607D"/></svg>
