<?xml version="1.0"?>
<svg xmlns="http://www.w3.org/2000/svg" height="512px" viewBox="0 -63 512.00029 512" width="512px"><path d="m157.832031 212.691406c4.140625 0 7.5-3.355468 7.5-7.5v-15.957031c0-4.140625-3.359375-7.5-7.5-7.5s-7.5 3.359375-7.5 7.5v15.957031c0 4.144532 3.359375 7.5 7.5 7.5zm0 0" fill="#87607D"/><path d="m354.167969 212.691406c4.140625 0 7.5-3.355468 7.5-7.5v-15.957031c0-4.140625-3.359375-7.5-7.5-7.5-4.144531 0-7.5 3.359375-7.5 7.5v15.957031c0 4.144532 3.355469 7.5 7.5 7.5zm0 0" fill="#87607D"/><path d="m256 221.210938c10.644531 0 20.632812-4.445313 27.40625-12.191407 2.726562-3.121093 2.410156-7.855469-.710938-10.582031-3.117187-2.726562-7.855468-2.410156-10.582031.710938-3.921875 4.488281-9.796875 7.0625-16.113281 7.0625s-12.191406-2.574219-16.113281-7.066407c-2.726563-3.117187-7.464844-3.433593-10.582031-.707031-3.121094 2.726562-3.4375 7.460938-.714844 10.582031 6.773437 7.746094 16.765625 12.191407 27.410156 12.191407zm0 0" fill="#87607D"/><path d="m493.746094 116.007812c-12.929688-4.164062-27.054688-6.273437-41.988282-6.273437-9.050781 0-18.347656.78125-27.742187 2.328125-.417969-24.832031-5.878906-48.164062-16.488281-67.9375-5.1875-9.671875-16.277344-15.207031-27.117188-13.550781-21.660156 3.316406-43.664062 12.832031-64.132812 27.648437-11.476563-22.03125-26.789063-40.46875-45.121094-53.417968-9.066406-6.40625-21.246094-6.40625-30.3125 0-18.183594 12.84375-33.542969 31.167968-45.109375 53.421874-20.46875-14.816406-42.476563-24.335937-64.144531-27.652343-10.96875-1.675781-21.871094 3.769531-27.117188 13.550781-10.605468 19.773438-16.066406 43.105469-16.488281 67.9375-9.394531-1.546875-18.691406-2.328125-27.742187-2.328125-14.933594 0-29.058594 2.109375-41.984376 6.273437-10.566406 3.402344-17.882812 13.140626-18.2070308 24.238282-1.4453122 49.828125 27.6406248 104.003906 76.2968748 142.882812-33.089844 10.875-49.847656 24.425782-49.847656 40.382813 0 19.074219 23.792969 34.667969 70.710938 46.347656 42.507812 10.582031 98.898437 16.40625 158.789062 16.40625 32.28125 0 63.449219-1.675781 92.640625-4.980469 4.117187-.464844 7.074219-4.179687 6.609375-8.292968-.464844-4.117188-4.175781-7.074219-8.296875-6.609376-28.632813 3.238282-59.234375 4.882813-90.953125 4.882813-58.707031 0-113.8125-5.667969-155.164062-15.960937-43.796876-10.898438-59.335938-23.941407-59.335938-31.792969 0-4.183594 4.328125-9.1875 12.179688-14.089844 8.707031-5.433594 21.699218-10.664063 37.710937-15.195313 35.488281 24.128907 75.21875 37.320313 113.007813 37.324219 16.910156 0 32.601562-2.675781 46.773437-7.9375 1.609375-.59375 3.207031-1.21875 4.789063-1.886719.011718-.007812.027343-.011718.039062-.019531.214844.09375.4375.175781.652344.265625 15.246094 6.351563 32.363281 9.578125 50.960937 9.578125 37.773438 0 77.507813-13.191406 113-37.324219 36.738281 10.386719 49.886719 22.1875 49.886719 29.285157 0 5.972656-8.402344 13.191406-23.054688 19.804687-16.824218 7.589844-41.328124 14.160156-70.859374 18.992188-4.085938.667968-6.859376 4.523437-6.191407 8.613281.667969 4.085937 4.519531 6.859375 8.613281 6.1875 39.773438-6.507813 106.492188-22.125 106.492188-53.601563 0-15.953124-16.757812-29.507812-49.847656-40.378906 48.65625-38.878906 77.746094-93.054687 76.296875-142.882812-.324219-11.097656-7.636719-20.835938-18.203125-24.238282zm-111.066406-70.605468c4.671874-.714844 9.394531 1.644531 11.628906 5.8125 40.429687 75.359375-2.828125 179.1875-66.957032 227.160156-12.46875 9.328125-26.277343 17.078125-41.085937 21.992188.605469-.589844 2-1.980469 2.09375-2.078126 11.90625-12.054687 21.585937-26.25 29.171875-41.367187 14.511719-28.90625 22.179688-62.820313 22.179688-98.066406 0-29.402344-5.410157-59.480469-16.945313-86.804688 19.195313-14.390625 39.800781-23.574219 59.914063-26.648437zm-264.988282 5.8125c2.25-4.195313 6.921875-6.53125 11.628906-5.8125 20.117188 3.078125 40.730469 12.261718 59.925782 26.660156-4.0625 9.652344-7.472656 19.902344-10.15625 30.648438-.984375 3.941406 1.523437 8.113281 5.460937 9.097656 4.019531 1.003906 8.089844-1.4375 9.09375-5.457032 8.539063-34.171874 26.53125-68.574218 55.851563-89.296874 3.890625-2.75 9.117187-2.75 13.003906-.003907 24.050781 16.988281 40.433594 43.285157 50.230469 70.664063 8.144531 22.765625 11.980469 46.984375 11.980469 71.140625 0 32.921875-7.121094 64.507812-20.585938 91.335937-10.703125 21.324219-26.140625 41.046875-46.605469 53.746094-.453125.28125-1.46875.910156-1.519531.941406-.050781-.03125-1.066406-.660156-1.523438-.941406-20.5-12.738281-35.875-32.371094-46.605468-53.746094-16.714844-33.308594-22.769532-71.554687-19.917969-108.550781.316406-4.082031-2.835937-7.746094-6.90625-8.058594-4.132813-.316406-7.734375 2.773438-8.054687 6.902344-3.050782 39.679687 3.546874 80.71875 21.476562 116.4375 7.582031 15.105469 17.257812 29.328125 29.167969 41.367187.101562.101563 1.496093 1.492188 2.097656 2.078126-.214844-.070313-1.136719-.378907-1.382813-.460938-21.511718-7.464844-40.71875-20.554688-57.03125-36.304688-38.015624-36.703124-62.5-89.769531-64.210937-142.707031-.84375-26.214843 4.179687-50.289062 14.582031-69.679687zm-83.941406 159.457031c-12.886719-23.429687-19.355469-47.632813-18.707031-69.992187.140625-4.757813 3.277343-8.9375 7.8125-10.394532 11.4375-3.683594 24.015625-5.550781 37.386719-5.550781 9.132812 0 18.566406.878906 28.113281 2.613281 1.128906 17.605469 4.679687 35.730469 10.625 53.695313.015625.050781.035156.105469.050781.15625 14.210938 42.628906 40.460938 82.128906 76.632812 109.1875 14.316407 10.710937 30.222657 19.457031 47.308594 24.867187.027344.007813.050782.015625.074219.023438-5.988281.847656-12.214844 1.273437-18.660156 1.273437-38.605469 0-75.886719-14.90625-107.308594-36.628906-.039063-.027344-.082031-.050781-.121094-.078125-25.714843-18.066406-48.015625-41.554688-63.207031-69.171875zm444.496094 0c-13.398438 24.363281-33.222656 46.808594-57.320313 64.90625-32.449219 24.375-72.308593 40.972656-113.3125 40.972656-6.441406 0-12.664062-.425781-18.660156-1.273437.023437-.007813.046875-.015625.074219-.023438 24.894531-8.046875 47.210937-22.671875 65.96875-40.765625 26.65625-25.707031 46.296875-58.269531 57.984375-93.328125.011719-.035156.023437-.066406.035156-.101562 5.949219-17.972656 9.5-36.101563 10.625-53.710938 9.550781-1.734375 18.984375-2.613281 28.117187-2.613281 13.371094 0 25.949219 1.867187 37.390626 5.550781 4.53125 1.457032 7.667968 5.636719 7.804687 10.394532.652344 22.359374-5.816406 46.5625-18.707031 69.992187zm0 0" fill="#87607D"/></svg>
